<svg version="1.1" id="Layer_1" xmlns="http://www.w3.org/2000/svg" xmlns:xlink="http://www.w3.org/1999/xlink" x="0px" y="0px"
	 width="100%" viewBox="0 0 2560 433" enable-background="new 0 0 2560 433" xml:space="preserve">
<path fill="#FEFEFE" opacity="1.000000" stroke="none" 
	d="
M1900.000000,434.000000 
	C1266.666626,434.000000 633.833313,434.000000 1.000000,434.000000 
	C1.000000,289.666656 1.000000,145.333328 1.000000,1.000000 
	C854.333313,1.000000 1707.666626,1.000000 2561.000000,1.000000 
	C2561.000000,145.333328 2561.000000,289.666656 2561.000000,434.000000 
	C2340.833252,434.000000 2120.666748,434.000000 1900.000000,434.000000 
M310.054352,311.500000 
	C310.054352,318.415039 310.054352,325.330109 310.054352,332.183289 
	C353.300049,332.183289 395.846222,332.183289 438.462036,332.183289 
	C438.559143,330.970612 438.682526,330.148132 438.682678,329.325684 
	C438.695984,257.005066 438.712036,184.684448 438.683777,112.363846 
	C438.681213,105.751801 435.812836,102.917587 429.208588,102.911491 
	C389.715698,102.875061 350.222687,102.864227 310.730011,102.971718 
	C308.729584,102.977158 306.496216,103.775650 304.767700,104.845390 
	C238.806305,145.666779 172.905319,186.585815 106.925781,227.377762 
	C103.877846,229.262146 102.662720,231.169067 102.682343,234.826782 
	C102.845917,265.320557 102.774734,295.815582 102.774414,326.310211 
	C102.774399,328.272156 102.774414,330.234100 102.774414,333.149292 
	C105.081985,331.937317 106.681763,331.221008 108.157097,330.304413 
	C174.179352,289.285004 240.185181,248.239090 306.231018,207.257706 
	C308.129333,206.079819 310.435669,204.855423 312.556976,204.846130 
	C346.883636,204.695663 381.211151,204.723160 415.538330,204.787704 
	C417.120636,204.790680 418.942841,205.144562 420.238983,205.978806 
	C424.546875,208.751480 423.683838,213.812851 418.410980,216.974731 
	C386.154022,236.317673 353.949860,255.750427 321.561707,274.871521 
	C313.802643,279.452271 310.385925,285.958923 310.087128,294.504395 
	C309.900879,299.830231 310.053711,305.167877 310.054352,311.500000 
M1260.617554,237.854340 
	C1261.125610,240.973862 1261.496216,244.123047 1262.162598,247.208389 
	C1271.067993,288.440216 1294.822144,317.080109 1335.112183,330.380035 
	C1369.982544,341.890930 1405.399536,341.571198 1440.098755,329.498138 
	C1473.284058,317.951813 1495.649048,294.911041 1506.703735,261.418854 
	C1514.488770,237.832291 1515.522461,213.604156 1510.855835,189.365158 
	C1502.808350,147.565887 1479.058350,118.457291 1438.390503,104.728722 
	C1404.432617,93.265266 1369.848511,93.300514 1335.750122,104.128403 
	C1301.936157,114.865997 1278.552490,137.226456 1266.650146,170.928406 
	C1259.073975,192.380630 1257.763062,214.514160 1260.617554,237.854340 
M1545.073853,293.500000 
	C1545.073853,306.413757 1545.073853,319.327515 1545.073853,332.386810 
	C1546.544800,332.472260 1547.359009,332.560760 1548.173096,332.560974 
	C1584.167114,332.570770 1620.165039,332.880188 1656.152832,332.408905 
	C1668.744995,332.244049 1681.462524,330.996399 1693.860229,328.776459 
	C1723.160889,323.529938 1743.503174,307.041046 1750.863647,277.625153 
	C1760.638306,238.560577 1760.714966,199.039627 1751.756714,159.823151 
	C1746.432007,136.513138 1732.575562,119.546860 1709.529053,111.023872 
	C1694.017578,105.287498 1677.859253,103.183388 1661.486328,103.067490 
	C1623.994873,102.802094 1586.500610,102.918213 1549.007568,102.899559 
	C1547.748169,102.898933 1546.488647,103.115761 1545.394287,103.216103 
	C1545.213379,103.734947 1545.115967,103.883728 1545.115967,104.032547 
	C1545.097656,166.855026 1545.085815,229.677521 1545.073853,293.500000 
M2161.106445,105.335251 
	C2158.750000,104.521355 2156.416016,103.633301 2154.033447,102.904800 
	C2125.751465,94.257332 2097.131104,94.806389 2068.593262,100.839104 
	C2058.953613,102.876801 2049.335693,106.361763 2040.547607,110.835068 
	C2012.050171,125.340759 2001.749878,152.455521 2004.504761,183.254486 
	C2006.436768,204.854431 2016.889648,220.697174 2036.930908,229.258591 
	C2045.116089,232.755157 2053.894287,235.592529 2062.671143,236.833557 
	C2085.741211,240.095734 2108.962402,242.282669 2132.114990,244.970581 
	C2140.292236,245.919891 2148.248047,247.710327 2154.805664,253.134674 
	C2162.578125,259.563721 2163.116211,270.118622 2155.425781,276.562256 
	C2151.585205,279.779999 2146.800293,282.481659 2141.996826,283.832275 
	C2122.179199,289.404602 2102.127441,288.871521 2082.248047,284.054169 
	C2069.804199,281.038605 2060.492676,274.284698 2057.672363,260.732208 
	C2057.449219,259.659302 2054.798828,258.411987 2053.264404,258.395874 
	C2037.104736,258.225769 2020.942261,258.283905 2004.780640,258.301849 
	C2003.650635,258.303101 2002.520874,258.485992 2001.112671,258.608673 
	C2001.112671,259.788452 2001.050415,260.758698 2001.121704,261.719055 
	C2003.527954,294.150085 2018.829102,317.329773 2049.845215,328.932434 
	C2073.541748,337.796875 2098.294678,339.023621 2123.215576,337.913605 
	C2144.553467,336.963196 2165.154541,332.792084 2183.887451,321.802612 
	C2209.285645,306.903168 2220.518311,281.775360 2215.933594,250.074905 
	C2212.221680,224.408249 2194.844971,205.966980 2166.372803,199.993896 
	C2149.325928,196.417709 2131.755859,195.387436 2114.463135,192.916153 
	C2101.472900,191.059738 2088.424316,189.288147 2075.642822,186.408829 
	C2067.659424,184.610352 2060.448486,180.239243 2060.109131,170.529678 
	C2059.765869,160.701477 2066.772217,156.128555 2074.555176,152.879654 
	C2088.575439,147.026855 2103.305908,146.197876 2118.228271,147.888657 
	C2135.932373,149.894577 2151.125977,155.564896 2156.195312,175.030533 
	C2175.365234,175.030533 2194.270996,175.030533 2213.535889,175.030533 
	C2213.162109,171.715134 2213.001709,168.730179 2212.468994,165.813324 
	C2207.044434,136.121094 2189.036133,117.004433 2161.106445,105.335251 
M1895.499756,152.655991 
	C1921.946655,152.655991 1948.393555,152.655991 1975.000366,152.655991 
	C1975.000366,135.836136 1975.000366,119.577583 1975.000366,103.108131 
	C1913.371216,103.108131 1851.969604,103.108131 1790.333252,103.108131 
	C1790.333252,179.564331 1790.333252,255.799042 1790.333252,332.311554 
	C1851.928833,332.311554 1913.343262,332.311554 1974.984619,332.311554 
	C1974.984619,315.820221 1974.984619,299.574554 1974.984619,282.850708 
	C1933.046753,282.850708 1891.309204,282.850708 1849.333130,282.850708 
	C1849.333130,268.814514 1849.333130,255.256760 1849.333130,241.147995 
	C1883.163330,241.147995 1916.721191,241.147995 1950.293823,241.147995 
	C1950.293823,224.225647 1950.293823,207.858383 1950.293823,191.127304 
	C1916.432251,191.127304 1882.991699,191.127304 1849.325928,191.127304 
	C1849.325928,178.190460 1849.325928,165.624725 1849.325928,152.655975 
	C1864.562622,152.655975 1879.531128,152.655975 1895.499756,152.655991 
M597.030273,332.576904 
	C600.037231,333.087311 601.319397,331.683502 602.289978,328.843689 
	C606.324890,317.038239 610.785706,305.377869 614.782898,293.560333 
	C615.830688,290.462585 617.272217,289.518768 620.451843,289.530518 
	C650.450439,289.641418 680.449829,289.651306 710.448242,289.509766 
	C713.741333,289.494232 715.019653,290.665222 716.011597,293.626526 
	C719.869202,305.142944 724.124390,316.526611 727.949585,328.053284 
	C729.053711,331.380371 730.475891,332.715851 734.191528,332.670319 
	C751.854797,332.453735 769.522400,332.588470 787.188416,332.574402 
	C788.750549,332.573151 790.312622,332.400421 792.237244,332.285736 
	C791.726807,330.839020 791.430054,329.917175 791.079468,329.016235 
	C763.206055,257.379639 735.321228,185.747421 707.458618,114.106575 
	C703.098511,102.895607 703.144775,102.882278 691.355835,102.884331 
	C670.370483,102.887985 649.385132,102.885361 628.281677,102.885361 
	C598.928589,179.323822 569.668518,255.520126 540.079285,332.573608 
	C559.281128,332.573608 577.703735,332.573608 597.030273,332.576904 
M954.636353,263.932617 
	C950.834167,272.879028 944.217957,278.954742 935.149597,282.109558 
	C918.086548,288.045685 900.794495,288.098114 883.672424,282.570435 
	C870.402100,278.286255 862.164001,268.954681 859.464722,255.201401 
	C858.574158,250.663696 858.343506,245.936447 858.335327,241.294922 
	C858.257141,196.974762 858.291565,152.654388 858.293701,108.334084 
	C858.293823,106.591690 858.293823,104.849289 858.293823,103.208878 
	C838.386963,103.208878 819.143555,103.208878 799.804016,103.208878 
	C799.804016,154.003250 799.360901,204.481262 799.956787,254.947006 
	C800.367676,289.745850 818.111938,313.868774 849.880737,327.051514 
	C885.086426,341.660461 921.341492,342.143860 957.424805,330.719788 
	C997.249512,318.111176 1016.882568,290.281647 1016.914185,248.493439 
	C1016.949768,201.507263 1016.926086,154.521042 1016.916199,107.534851 
	C1016.915894,106.088852 1016.783752,104.642883 1016.717773,103.292191 
	C997.018860,103.292191 977.646423,103.292191 958.109131,103.292191 
	C958.109131,105.517609 958.109253,107.337585 958.109131,109.157570 
	C958.106750,153.811111 958.235840,198.465469 957.960022,243.117340 
	C957.918640,249.820969 955.982361,256.512909 954.636353,263.932617 
M2385.318848,106.649681 
	C2358.985107,136.039307 2332.651367,165.428925 2306.317627,194.818558 
	C2305.925049,194.625031 2305.532715,194.431519 2305.140137,194.237991 
	C2305.140137,163.853561 2305.140137,133.469116 2305.140137,103.228989 
	C2285.368164,103.228989 2266.132812,103.228989 2247.209717,103.228989 
	C2247.209717,179.805954 2247.209717,256.040009 2247.209717,332.313110 
	C2266.735596,332.313110 2285.839844,332.313110 2305.512207,332.313110 
	C2305.512207,303.694214 2305.512207,275.331818 2305.512207,246.969437 
	C2305.949219,246.724533 2306.386475,246.479614 2306.823486,246.234711 
	C2307.562500,247.335464 2308.177246,248.548828 2309.058350,249.520584 
	C2332.773926,275.673065 2356.583008,301.741211 2380.173584,328.005554 
	C2383.245850,331.425964 2386.291260,332.732208 2390.857178,332.677643 
	C2411.519531,332.430725 2432.186768,332.575867 2452.852051,332.562988 
	C2454.453125,332.561981 2456.054199,332.430511 2458.643066,332.315948 
	C2422.703369,294.164459 2387.398926,256.687195 2352.004150,219.114120 
	C2387.627686,180.343124 2422.879639,141.976288 2458.779053,102.904945 
	C2435.513184,102.904945 2413.520752,102.825928 2391.531494,103.044159 
	C2389.623291,103.063095 2387.734375,105.042580 2385.318848,106.649681 
M1115.475830,152.657730 
	C1116.084961,154.444641 1117.223511,156.230667 1117.226440,158.018570 
	C1117.319336,214.677567 1117.299927,271.336761 1117.313232,327.995911 
	C1117.313599,329.414307 1117.492432,330.832642 1117.592285,332.314758 
	C1137.322388,332.314758 1156.586426,332.314758 1176.217407,332.314758 
	C1176.217407,272.435547 1176.217407,212.829376 1176.217407,152.587692 
	C1200.951172,152.587692 1225.325562,152.587692 1249.664673,152.587692 
	C1249.664673,135.698242 1249.664673,119.447975 1249.664673,103.234848 
	C1180.800659,103.234848 1112.254028,103.234848 1043.730103,103.234848 
	C1043.730103,119.832275 1043.730103,136.075302 1043.730103,152.638519 
	C1067.543213,152.638519 1091.011108,152.638519 1115.475830,152.657730 
z"/>
<path fill="#020202" opacity="1.000000" stroke="none" 
	d="
M310.054352,311.000122 
	C310.053711,305.167877 309.900879,299.830231 310.087128,294.504395 
	C310.385925,285.958923 313.802643,279.452271 321.561707,274.871521 
	C353.949860,255.750427 386.154022,236.317673 418.410980,216.974731 
	C423.683838,213.812851 424.546875,208.751480 420.238983,205.978806 
	C418.942841,205.144562 417.120636,204.790680 415.538330,204.787704 
	C381.211151,204.723160 346.883636,204.695663 312.556976,204.846130 
	C310.435669,204.855423 308.129333,206.079819 306.231018,207.257706 
	C240.185181,248.239090 174.179352,289.285004 108.157097,330.304413 
	C106.681763,331.221008 105.081985,331.937317 102.774414,333.149292 
	C102.774414,330.234100 102.774399,328.272156 102.774414,326.310211 
	C102.774734,295.815582 102.845917,265.320557 102.682343,234.826782 
	C102.662720,231.169067 103.877846,229.262146 106.925781,227.377762 
	C172.905319,186.585815 238.806305,145.666779 304.767700,104.845390 
	C306.496216,103.775650 308.729584,102.977158 310.730011,102.971718 
	C350.222687,102.864227 389.715698,102.875061 429.208588,102.911491 
	C435.812836,102.917587 438.681213,105.751801 438.683777,112.363846 
	C438.712036,184.684448 438.695984,257.005066 438.682678,329.325684 
	C438.682526,330.148132 438.559143,330.970612 438.462036,332.183289 
	C395.846222,332.183289 353.300049,332.183289 310.054352,332.183289 
	C310.054352,325.330109 310.054352,318.415039 310.054352,311.000122 
z"/>
<path fill="#020202" opacity="1.000000" stroke="none" 
	d="
M1260.519531,237.415909 
	C1257.763062,214.514160 1259.073975,192.380630 1266.650146,170.928406 
	C1278.552490,137.226456 1301.936157,114.865997 1335.750122,104.128403 
	C1369.848511,93.300514 1404.432617,93.265266 1438.390503,104.728722 
	C1479.058350,118.457291 1502.808350,147.565887 1510.855835,189.365158 
	C1515.522461,213.604156 1514.488770,237.832291 1506.703735,261.418854 
	C1495.649048,294.911041 1473.284058,317.951813 1440.098755,329.498138 
	C1405.399536,341.571198 1369.982544,341.890930 1335.112183,330.380035 
	C1294.822144,317.080109 1271.067993,288.440216 1262.162598,247.208389 
	C1261.496216,244.123047 1261.125610,240.973862 1260.519531,237.415909 
M1432.091187,271.624207 
	C1440.510498,264.331635 1446.119385,255.213135 1449.295532,244.616013 
	C1454.593994,226.937943 1454.813110,209.093918 1449.716553,191.402512 
	C1444.006592,171.581833 1431.217896,158.139862 1411.390991,152.020309 
	C1394.554810,146.823807 1377.489380,146.862152 1360.691528,152.127731 
	C1342.504883,157.828644 1330.154175,169.979660 1323.808838,187.972717 
	C1318.419434,203.254974 1317.899048,218.941986 1320.692871,234.801636 
	C1322.937378,247.543320 1327.782104,259.057709 1337.030029,268.378510 
	C1359.631470,291.157684 1405.438721,292.921051 1432.091187,271.624207 
z"/>
<path fill="#020202" opacity="1.000000" stroke="none" 
	d="
M1545.073853,293.000000 
	C1545.085815,229.677521 1545.097656,166.855026 1545.115967,104.032547 
	C1545.115967,103.883728 1545.213379,103.734947 1545.394287,103.216103 
	C1546.488647,103.115761 1547.748169,102.898933 1549.007568,102.899559 
	C1586.500610,102.918213 1623.994873,102.802094 1661.486328,103.067490 
	C1677.859253,103.183388 1694.017578,105.287498 1709.529053,111.023872 
	C1732.575562,119.546860 1746.432007,136.513138 1751.756714,159.823151 
	C1760.714966,199.039627 1760.638306,238.560577 1750.863647,277.625153 
	C1743.503174,307.041046 1723.160889,323.529938 1693.860229,328.776459 
	C1681.462524,330.996399 1668.744995,332.244049 1656.152832,332.408905 
	C1620.165039,332.880188 1584.167114,332.570770 1548.173096,332.560974 
	C1547.359009,332.560760 1546.544800,332.472260 1545.073853,332.386810 
	C1545.073853,319.327515 1545.073853,306.413757 1545.073853,293.000000 
M1695.233276,182.366714 
	C1691.586426,164.005554 1683.718872,156.410065 1665.213623,153.524597 
	C1662.592407,153.115875 1659.913940,152.919067 1657.259888,152.899551 
	C1640.609497,152.777054 1623.958496,152.723724 1607.307617,152.682648 
	C1606.222412,152.679962 1605.136475,152.969177 1604.243896,153.095352 
	C1604.243896,196.494934 1604.243896,239.526413 1604.243896,282.847656 
	C1619.395752,282.847656 1634.193115,282.882477 1648.990234,282.819733 
	C1652.146362,282.806366 1655.309937,282.529633 1658.454712,282.219116 
	C1678.454102,280.244080 1689.348755,271.293091 1694.100708,251.638138 
	C1699.575439,228.994186 1698.768799,206.076889 1695.233276,182.366714 
z"/>
<path fill="#020202" opacity="1.000000" stroke="none" 
	d="
M2161.445801,105.515503 
	C2189.036133,117.004433 2207.044434,136.121094 2212.468994,165.813324 
	C2213.001709,168.730179 2213.162109,171.715134 2213.535889,175.030533 
	C2194.270996,175.030533 2175.365234,175.030533 2156.195312,175.030533 
	C2151.125977,155.564896 2135.932373,149.894577 2118.228271,147.888657 
	C2103.305908,146.197876 2088.575439,147.026855 2074.555176,152.879654 
	C2066.772217,156.128555 2059.765869,160.701477 2060.109131,170.529678 
	C2060.448486,180.239243 2067.659424,184.610352 2075.642822,186.408829 
	C2088.424316,189.288147 2101.472900,191.059738 2114.463135,192.916153 
	C2131.755859,195.387436 2149.325928,196.417709 2166.372803,199.993896 
	C2194.844971,205.966980 2212.221680,224.408249 2215.933594,250.074905 
	C2220.518311,281.775360 2209.285645,306.903168 2183.887451,321.802612 
	C2165.154541,332.792084 2144.553467,336.963196 2123.215576,337.913605 
	C2098.294678,339.023621 2073.541748,337.796875 2049.845215,328.932434 
	C2018.829102,317.329773 2003.527954,294.150085 2001.121704,261.719055 
	C2001.050415,260.758698 2001.112671,259.788452 2001.112671,258.608673 
	C2002.520874,258.485992 2003.650635,258.303101 2004.780640,258.301849 
	C2020.942261,258.283905 2037.104736,258.225769 2053.264404,258.395874 
	C2054.798828,258.411987 2057.449219,259.659302 2057.672363,260.732208 
	C2060.492676,274.284698 2069.804199,281.038605 2082.248047,284.054169 
	C2102.127441,288.871521 2122.179199,289.404602 2141.996826,283.832275 
	C2146.800293,282.481659 2151.585205,279.779999 2155.425781,276.562256 
	C2163.116211,270.118622 2162.578125,259.563721 2154.805664,253.134674 
	C2148.248047,247.710327 2140.292236,245.919891 2132.114990,244.970581 
	C2108.962402,242.282669 2085.741211,240.095734 2062.671143,236.833557 
	C2053.894287,235.592529 2045.116089,232.755157 2036.930908,229.258591 
	C2016.889648,220.697174 2006.436768,204.854431 2004.504761,183.254486 
	C2001.749878,152.455521 2012.050171,125.340759 2040.547607,110.835068 
	C2049.335693,106.361763 2058.953613,102.876801 2068.593262,100.839104 
	C2097.131104,94.806389 2125.751465,94.257332 2154.033447,102.904800 
	C2156.416016,103.633301 2158.750000,104.521355 2161.445801,105.515503 
z"/>
<path fill="#020202" opacity="1.000000" stroke="none" 
	d="
M1894.999756,152.655975 
	C1879.531128,152.655975 1864.562622,152.655975 1849.325928,152.655975 
	C1849.325928,165.624725 1849.325928,178.190460 1849.325928,191.127304 
	C1882.991699,191.127304 1916.432251,191.127304 1950.293823,191.127304 
	C1950.293823,207.858383 1950.293823,224.225647 1950.293823,241.147995 
	C1916.721191,241.147995 1883.163330,241.147995 1849.333130,241.147995 
	C1849.333130,255.256760 1849.333130,268.814514 1849.333130,282.850708 
	C1891.309204,282.850708 1933.046753,282.850708 1974.984619,282.850708 
	C1974.984619,299.574554 1974.984619,315.820221 1974.984619,332.311554 
	C1913.343262,332.311554 1851.928833,332.311554 1790.333252,332.311554 
	C1790.333252,255.799042 1790.333252,179.564331 1790.333252,103.108131 
	C1851.969604,103.108131 1913.371216,103.108131 1975.000366,103.108131 
	C1975.000366,119.577583 1975.000366,135.836136 1975.000366,152.655991 
	C1948.393555,152.655991 1921.946655,152.655991 1894.999756,152.655975 
z"/>
<path fill="#020202" opacity="1.000000" stroke="none" 
	d="
M596.578308,332.575256 
	C577.703735,332.573608 559.281128,332.573608 540.079285,332.573608 
	C569.668518,255.520126 598.928589,179.323822 628.281677,102.885361 
	C649.385132,102.885361 670.370483,102.887985 691.355835,102.884331 
	C703.144775,102.882278 703.098511,102.895607 707.458618,114.106575 
	C735.321228,185.747421 763.206055,257.379639 791.079468,329.016235 
	C791.430054,329.917175 791.726807,330.839020 792.237244,332.285736 
	C790.312622,332.400421 788.750549,332.573151 787.188416,332.574402 
	C769.522400,332.588470 751.854797,332.453735 734.191528,332.670319 
	C730.475891,332.715851 729.053711,331.380371 727.949585,328.053284 
	C724.124390,316.526611 719.869202,305.142944 716.011597,293.626526 
	C715.019653,290.665222 713.741333,289.494232 710.448242,289.509766 
	C680.449829,289.651306 650.450439,289.641418 620.451843,289.530518 
	C617.272217,289.518768 615.830688,290.462585 614.782898,293.560333 
	C610.785706,305.377869 606.324890,317.038239 602.289978,328.843689 
	C601.319397,331.683502 600.037231,333.087311 596.578308,332.575256 
M644.961243,209.372894 
	C641.304749,219.604919 637.648315,229.836945 633.942444,240.207306 
	C655.361816,240.207306 676.051819,240.207306 697.173828,240.207306 
	C686.737549,210.547745 676.459167,181.336945 665.813110,151.081131 
	C658.634033,171.081223 651.897583,189.848404 644.961243,209.372894 
z"/>
<path fill="#010101" opacity="1.000000" stroke="none" 
	d="
M954.779480,263.571442 
	C955.982361,256.512909 957.918640,249.820969 957.960022,243.117340 
	C958.235840,198.465469 958.106750,153.811111 958.109131,109.157570 
	C958.109253,107.337585 958.109131,105.517609 958.109131,103.292191 
	C977.646423,103.292191 997.018860,103.292191 1016.717773,103.292191 
	C1016.783752,104.642883 1016.915894,106.088852 1016.916199,107.534851 
	C1016.926086,154.521042 1016.949768,201.507263 1016.914185,248.493439 
	C1016.882568,290.281647 997.249512,318.111176 957.424805,330.719788 
	C921.341492,342.143860 885.086426,341.660461 849.880737,327.051514 
	C818.111938,313.868774 800.367676,289.745850 799.956787,254.947006 
	C799.360901,204.481262 799.804016,154.003250 799.804016,103.208878 
	C819.143555,103.208878 838.386963,103.208878 858.293823,103.208878 
	C858.293823,104.849289 858.293823,106.591690 858.293701,108.334084 
	C858.291565,152.654388 858.257141,196.974762 858.335327,241.294922 
	C858.343506,245.936447 858.574158,250.663696 859.464722,255.201401 
	C862.164001,268.954681 870.402100,278.286255 883.672424,282.570435 
	C900.794495,288.098114 918.086548,288.045685 935.149597,282.109558 
	C944.217957,278.954742 950.834167,272.879028 954.779480,263.571442 
z"/>
<path fill="#020202" opacity="1.000000" stroke="none" 
	d="
M2385.577637,106.380531 
	C2387.734375,105.042580 2389.623291,103.063095 2391.531494,103.044159 
	C2413.520752,102.825928 2435.513184,102.904945 2458.779053,102.904945 
	C2422.879639,141.976288 2387.627686,180.343124 2352.004150,219.114120 
	C2387.398926,256.687195 2422.703369,294.164459 2458.643066,332.315948 
	C2456.054199,332.430511 2454.453125,332.561981 2452.852051,332.562988 
	C2432.186768,332.575867 2411.519531,332.430725 2390.857178,332.677643 
	C2386.291260,332.732208 2383.245850,331.425964 2380.173584,328.005554 
	C2356.583008,301.741211 2332.773926,275.673065 2309.058350,249.520584 
	C2308.177246,248.548828 2307.562500,247.335464 2306.823486,246.234711 
	C2306.386475,246.479614 2305.949219,246.724533 2305.512207,246.969437 
	C2305.512207,275.331818 2305.512207,303.694214 2305.512207,332.313110 
	C2285.839844,332.313110 2266.735596,332.313110 2247.209717,332.313110 
	C2247.209717,256.040009 2247.209717,179.805954 2247.209717,103.228989 
	C2266.132812,103.228989 2285.368164,103.228989 2305.140137,103.228989 
	C2305.140137,133.469116 2305.140137,163.853561 2305.140137,194.237991 
	C2305.532715,194.431519 2305.925049,194.625031 2306.317627,194.818558 
	C2332.651367,165.428925 2358.985107,136.039307 2385.577637,106.380531 
z"/>
<path fill="#020202" opacity="1.000000" stroke="none" 
	d="
M1114.977417,152.648132 
	C1091.011108,152.638519 1067.543213,152.638519 1043.730103,152.638519 
	C1043.730103,136.075302 1043.730103,119.832275 1043.730103,103.234848 
	C1112.254028,103.234848 1180.800659,103.234848 1249.664673,103.234848 
	C1249.664673,119.447975 1249.664673,135.698242 1249.664673,152.587692 
	C1225.325562,152.587692 1200.951172,152.587692 1176.217407,152.587692 
	C1176.217407,212.829376 1176.217407,272.435547 1176.217407,332.314758 
	C1156.586426,332.314758 1137.322388,332.314758 1117.592285,332.314758 
	C1117.492432,330.832642 1117.313599,329.414307 1117.313232,327.995911 
	C1117.299927,271.336761 1117.319336,214.677567 1117.226440,158.018570 
	C1117.223511,156.230667 1116.084961,154.444641 1114.977417,152.648132 
z"/>
<path fill="#FEFEFE" opacity="1.000000" stroke="none" 
	d="
M1431.808594,271.841492 
	C1405.438721,292.921051 1359.631470,291.157684 1337.030029,268.378510 
	C1327.782104,259.057709 1322.937378,247.543320 1320.692871,234.801636 
	C1317.899048,218.941986 1318.419434,203.254974 1323.808838,187.972717 
	C1330.154175,169.979660 1342.504883,157.828644 1360.691528,152.127731 
	C1377.489380,146.862152 1394.554810,146.823807 1411.390991,152.020309 
	C1431.217896,158.139862 1444.006592,171.581833 1449.716553,191.402512 
	C1454.813110,209.093918 1454.593994,226.937943 1449.295532,244.616013 
	C1446.119385,255.213135 1440.510498,264.331635 1431.808594,271.841492 
z"/>
<path fill="#FEFEFE" opacity="1.000000" stroke="none" 
	d="
M1695.349487,182.773956 
	C1698.768799,206.076889 1699.575439,228.994186 1694.100708,251.638138 
	C1689.348755,271.293091 1678.454102,280.244080 1658.454712,282.219116 
	C1655.309937,282.529633 1652.146362,282.806366 1648.990234,282.819733 
	C1634.193115,282.882477 1619.395752,282.847656 1604.243896,282.847656 
	C1604.243896,239.526413 1604.243896,196.494934 1604.243896,153.095352 
	C1605.136475,152.969177 1606.222412,152.679962 1607.307617,152.682648 
	C1623.958496,152.723724 1640.609497,152.777054 1657.259888,152.899551 
	C1659.913940,152.919067 1662.592407,153.115875 1665.213623,153.524597 
	C1683.718872,156.410065 1691.586426,164.005554 1695.349487,182.773956 
z"/>
<path fill="#F9F9F9" opacity="1.000000" stroke="none" 
	d="
M645.061157,208.994232 
	C651.897583,189.848404 658.634033,171.081223 665.813110,151.081131 
	C676.459167,181.336945 686.737549,210.547745 697.173828,240.207306 
	C676.051819,240.207306 655.361816,240.207306 633.942444,240.207306 
	C637.648315,229.836945 641.304749,219.604919 645.061157,208.994232 
z"/>
</svg>