<svg id="visual" viewBox="0 0 900 600" width="900" height="600" xmlns="http://www.w3.org/2000/svg" xmlns:xlink="http://www.w3.org/1999/xlink" version="1.1"><path d="M0 532L30 529.7C60 527.3 120 522.7 180 508.5C240 494.3 300 470.7 360 461.8C420 453 480 459 540 471.5C600 484 660 503 720 510.8C780 518.7 840 515.3 870 513.7L900 512L900 601L870 601C840 601 780 601 720 601C660 601 600 601 540 601C480 601 420 601 360 601C300 601 240 601 180 601C120 601 60 601 30 601L0 601Z" fill="#b6aaa6"></path></svg>