<svg id="visual" viewBox="0 0 900 600" width="900" height="600" xmlns="http://www.w3.org/2000/svg" xmlns:xlink="http://www.w3.org/1999/xlink" version="1.1"><rect x="0" y="0" width="900" height="600" fill="#fff"></rect><path d="M0 126L37.5 130.3C75 134.7 150 143.3 225 151.3C300 159.3 375 166.7 450 166.3C525 166 600 158 675 152C750 146 825 142 862.5 140L900 138L900 0L862.5 0C825 0 750 0 675 0C600 0 525 0 450 0C375 0 300 0 225 0C150 0 75 0 37.5 0L0 0Z" fill="#8E7871" stroke-linecap="round" stroke-linejoin="miter"></path></svg>